<?xml version="1.0" encoding="UTF-8"?>
<svg id="Lag_1" data-name="Lag 1" xmlns="http://www.w3.org/2000/svg" viewBox="0 0 245.59 246.57">
  <defs>
    <style>
      .cls-1 {
        fill: #1d1d1b;
      }
    </style>
  </defs>
  <g>
    <path class="cls-1" d="m19.87,155.04l-1.66-6.04,1.56-.43,1.06,3.86,5.21-1.43-.82-2.99,1.54-.42.82,2.99,7.31-2,.6,2.18-15.62,4.28Z"/>
    <path class="cls-1" d="m27.46,138.71l-6.1.7c-3.18.36-5.22-.57-5.59-3.83-.37-3.24,1.43-4.61,4.59-4.97l6.12-.7c3.16-.36,5.34.56,5.71,3.8.38,3.28-1.52,4.64-4.72,5.01Zm-.25-6.6l-7.06.81c-1.79.2-2.84.67-2.64,2.46.21,1.81,1.34,2.02,3.13,1.82l7.06-.81c1.79-.2,2.92-.68,2.72-2.48-.2-1.79-1.42-1.99-3.2-1.79Z"/>
    <path class="cls-1" d="m26.2,121.73l-6.13-.32c-3.19-.16-5.05-1.42-4.88-4.7.17-3.26,2.16-4.31,5.34-4.15l6.15.32c3.18.16,5.17,1.43,5,4.68-.17,3.3-2.27,4.33-5.48,4.16Zm.84-6.54l-7.09-.37c-1.8-.09-2.91.19-3.01,1.99-.09,1.82.99,2.21,2.78,2.31l7.09.37c1.8.09,2.99-.19,3.09-2,.09-1.8-1.07-2.2-2.87-2.29Z"/>
    <path class="cls-1" d="m16.98,102.25l1.27-6.13,1.59.33-.81,3.92,5.29,1.1.63-3.04,1.57.32-.63,3.04,7.42,1.54-.46,2.21-15.86-3.29Z"/>
    <path class="cls-1" d="m20.83,87.17l2.12-5.91,1.58.57-1.36,3.78,5.04,1.81,1.1-3.07,1.51.54-1.1,3.07,5.59,2.01,1.37-3.82,1.52.55-2.14,5.95-15.25-5.47Z"/>
    <path class="cls-1" d="m36.97,78.3l.48-2.02c1.59.72,3.33,1.16,4.16-.37.55-1.02.27-1.88-.83-2.47-1.28-.69-2.31-.4-3.58.07l-3.41,1.25c-1.34.5-2.47.44-3.89-.33-2.09-1.13-2.6-3.06-1.48-5.12,1.23-2.27,3-2.73,5.62-1.6l-.46,1.94c-1.46-.66-2.83-.99-3.63.49-.53.99-.32,1.85.72,2.41.86.47,1.5.47,2.44.11l3.42-1.27c1.53-.56,3.32-.84,5.1.12,2.11,1.14,2.63,3.26,1.55,5.25-1.34,2.48-3.66,2.73-6.2,1.54Z"/>
    <path class="cls-1" d="m38.31,57.09l-1.65,2.19-1.34-1.01,4.61-6.11,1.34,1.01-1.6,2.12,11.59,8.74-1.36,1.8-11.59-8.74Z"/>
    <path class="cls-1" d="m46.13,45.2l1.55-1.59,11.57,11.34-1.55,1.59-11.57-11.34Z"/>
    <path class="cls-1" d="m54.7,37.07l1.68-1.29,9.31,7.9-5.35-10.95,1.63-1.26,7.05,15.02-1.57,1.21-12.75-10.63Z"/>
    <path class="cls-1" d="m71.98,25.31l1.92-1.03,10.73,12.62-1.88,1.02-2.59-3.24-2.91,1.57,1.25,3.96-1.87,1.01-4.66-15.89Zm7.15,8.08l-4.66-5.78,2.29,7.06,2.38-1.28Z"/>
    <path class="cls-1" d="m85.83,18.86l2.13-.75,4.81,13.77,3.91-1.37.53,1.53-6.04,2.11-5.34-15.3Z"/>
    <path class="cls-1" d="m160.08,18.56l5.82,2.31-.6,1.5-3.72-1.48-1.99,5.02,2.88,1.14-.59,1.49-2.88-1.14-2.8,7.04-2.1-.83,5.98-15.05Z"/>
    <path class="cls-1" d="m168.57,34.48l3.17-5.26c1.65-2.74,3.63-3.79,6.44-2.1,2.79,1.68,2.79,3.94,1.15,6.67l-3.18,5.28c-1.64,2.73-3.7,3.89-6.49,2.21-2.83-1.7-2.75-4.04-1.1-6.8Zm5.38,3.82l3.66-6.09c.93-1.54,1.2-2.66-.34-3.59-1.56-.94-2.42-.17-3.35,1.37l-3.66,6.09c-.93,1.54-1.24,2.73.32,3.67,1.54.93,2.44.09,3.37-1.45Z"/>
    <path class="cls-1" d="m182.78,43.87l4.03-4.63c2.1-2.41,4.24-3.1,6.71-.95,2.46,2.14,2.06,4.37-.03,6.76l-4.04,4.65c-2.09,2.4-4.32,3.19-6.77,1.05-2.49-2.17-2.01-4.45.1-6.88Zm4.63,4.7l4.66-5.35c1.18-1.36,1.65-2.41.29-3.59-1.37-1.19-2.35-.59-3.53.77l-4.66,5.35c-1.18,1.36-1.7,2.47-.33,3.67,1.36,1.18,2.39.52,3.57-.84Z"/>
    <path class="cls-1" d="m203.81,48.68l4.02,4.8-1.24,1.04-2.57-3.07-4.14,3.47,1.99,2.38-1.23,1.03-1.99-2.38-5.81,4.87-1.45-1.73,12.43-10.4Z"/>
    <path class="cls-1" d="m213.25,61.11l3.31,5.34-1.43.88-2.12-3.42-4.56,2.82,1.72,2.77-1.36.84-1.72-2.77-5.05,3.13,2.14,3.45-1.38.85-3.33-5.37,13.77-8.53Z"/>
    <path class="cls-1" d="m210.14,79.26l1.28,1.63c-1.55.79-2.98,1.88-2.3,3.48.46,1.07,1.31,1.38,2.45.89,1.34-.57,1.75-1.55,2.18-2.84l1.14-3.44c.44-1.36,1.19-2.2,2.68-2.84,2.19-.93,4.01-.13,4.93,2.03,1.01,2.37.27,4.04-2.24,5.39l-1.23-1.56c1.42-.74,2.53-1.6,1.87-3.15-.44-1.03-1.25-1.4-2.34-.94-.9.39-1.3.88-1.61,1.84l-1.13,3.46c-.51,1.55-1.41,3.12-3.26,3.92-2.21.94-4.19.03-5.07-2.05-1.11-2.59.14-4.56,2.65-5.81Z"/>
    <path class="cls-1" d="m225.92,93.51l-.69-2.65,1.63-.42,1.92,7.42-1.63.42-.67-2.58-14.06,3.64-.57-2.19,14.06-3.64Z"/>
    <path class="cls-1" d="m230.35,107.02l.28,2.2-16.07,2.04-.28-2.2,16.07-2.04Z"/>
    <path class="cls-1" d="m231.42,118.64v2.12s-11.97,2.49-11.97,2.49l11.93,2.51v2.06s-16.2-3.67-16.2-3.67v-1.98s16.24-3.53,16.24-3.53Z"/>
    <path class="cls-1" d="m230.11,139.44l-.35,2.15-16.54.83.34-2.11,4.15-.08.53-3.26-3.9-1.42.34-2.09,15.44,5.98Zm-10.76.75l7.42-.18-6.99-2.49-.43,2.67Z"/>
    <path class="cls-1" d="m226.88,154.23l-.69,2.15-13.89-4.44-1.26,3.94-1.54-.49,1.95-6.1,15.43,4.93Z"/>
    <path class="cls-1" d="m201.6,198.66l-4.38,4.48-1.16-1.13,2.8-2.86-3.86-3.78-2.17,2.22-1.14-1.12,2.17-2.22-5.42-5.3,1.58-1.62,11.58,11.33Z"/>
    <path class="cls-1" d="m183.68,200.33l3.66,4.93c1.91,2.57,2.12,4.8-.51,6.76-2.62,1.94-4.7,1.08-6.6-1.48l-3.67-4.95c-1.9-2.55-2.19-4.9.42-6.84,2.65-1.97,4.78-1.01,6.7,1.58Zm-5.58,3.52l4.23,5.7c1.07,1.45,2,2.13,3.45,1.05,1.46-1.08,1.08-2.17,0-3.62l-4.23-5.7c-1.07-1.45-2.05-2.19-3.51-1.1-1.45,1.07-1.01,2.22.06,3.67Z"/>
    <path class="cls-1" d="m169.59,209.92l2.74,5.49c1.43,2.86,1.25,5.1-1.69,6.57-2.92,1.46-4.82.24-6.24-2.61l-2.75-5.51c-1.42-2.85-1.3-5.21,1.61-6.66,2.95-1.47,4.88-.16,6.32,2.72Zm-6.11,2.49l3.17,6.35c.8,1.61,1.6,2.44,3.21,1.64,1.63-.81,1.44-1.95.64-3.56l-3.17-6.35c-.8-1.61-1.64-2.51-3.26-1.7-1.61.8-1.39,2.01-.58,3.62Z"/>
    <path class="cls-1" d="m157.03,227.52l-5.98,1.85-.48-1.55,3.82-1.18-1.59-5.16-2.96.92-.47-1.53,2.96-.92-2.24-7.24,2.16-.67,4.78,15.48Z"/>
    <path class="cls-1" d="m141.81,231.41l-6.21.93-.25-1.66,3.98-.6-.8-5.3-3.23.49-.24-1.58,3.22-.48-.88-5.88-4.02.6-.24-1.6,6.25-.94,2.41,16.02Z"/>
    <path class="cls-1" d="m126.35,221.36l-2,.53c-.11-1.74-.54-3.48-2.28-3.49-1.16,0-1.78.65-1.79,1.89,0,1.46.73,2.22,1.75,3.13l2.71,2.41c1.08.95,1.55,1.97,1.54,3.59-.01,2.38-1.48,3.73-3.82,3.72-2.58-.01-3.81-1.36-4.06-4.2l1.92-.51c.11,1.6.47,2.96,2.15,2.97,1.12,0,1.78-.59,1.79-1.77,0-.98-.29-1.54-1.05-2.21l-2.73-2.41c-1.22-1.09-2.31-2.53-2.3-4.55.01-2.4,1.64-3.85,3.9-3.84,2.82.01,4.13,1.94,4.28,4.74Z"/>
    <path class="cls-1" d="m106.9,230.06l2.7.45-.28,1.66-7.55-1.27.28-1.66,2.62.44,2.41-14.32,2.23.38-2.41,14.32Z"/>
    <path class="cls-1" d="m92.66,228.54l-2.12-.66,4.82-15.47,2.12.66-4.82,15.47Z"/>
    <path class="cls-1" d="m81.48,224.59l-1.91-.92,2.85-11.87-7.36,9.71-1.86-.89,10.23-13.06,1.79.86-3.74,16.17Z"/>
    <path class="cls-1" d="m63.18,214.45l-1.79-1.25,6.44-15.27,1.76,1.23-1.73,3.77,2.71,1.89,2.98-2.9,1.74,1.21-12.1,11.32Zm3.99-10.02l-3.06,6.77,5.28-5.22-2.21-1.55Z"/>
    <path class="cls-1" d="m51.22,205l-1.63-1.57,10.1-10.52-2.99-2.87,1.12-1.17,4.62,4.43-11.22,11.69Z"/>
  </g>
  <path class="cls-1" d="m122.79,243.46C56.14,243.46,1.92,189.24,1.92,122.59S56.14,1.71,122.79,1.71s120.87,54.22,120.87,120.87-54.22,120.87-120.87,120.87Zm0-238.75C57.8,4.71,4.92,57.59,4.92,122.59s52.88,117.87,117.87,117.87,117.87-52.88,117.87-117.87S187.79,4.71,122.79,4.71Z"/>
  <g>
    <path class="cls-1" d="m132.19,27.64c.59,0,.88.32.88.96,0,.24-.28.42-.84.54-.6-.15-.9-.45-.9-.92,0-.27.29-.46.86-.58Z"/>
    <path class="cls-1" d="m115.37,27.7c.57.04.86.24.86.6,0,.15-.11.31-.34.48-.23.17-.43.26-.62.26-.2,0-.39-.09-.58-.26s-.28-.35-.28-.54c0-.24.32-.42.96-.54Z"/>
    <path class="cls-1" d="m123.45,22.26c.25,0,.66.79,1.22,2.38.2.56.3,1.06.3,1.5v.66c0,.33-.15.68-.46,1.03-.31.35-.62.53-.94.53-.44,0-.8-.21-1.07-.64-.27-.43-.42-1.02-.43-1.78.08-.4.12-.67.12-.82,0-.28.24-.95.72-2,.27-.57.45-.86.54-.86Z"/>
    <path class="cls-1" d="m117.13,25.7c.16.01.29.09.4.23.11.14.16.3.16.47,0,.39-.17.58-.5.58-.13,0-.3-.09-.49-.27-.19-.18-.29-.32-.29-.41,0-.15.24-.35.72-.6Z"/>
    <path class="cls-1" d="m130.27,25.76c.12,0,.29.09.52.26.23.17.34.3.34.38,0,.23-.29.4-.86.52-.39-.03-.58-.16-.58-.4,0-.16.07-.33.21-.5.14-.17.26-.26.37-.26Z"/>
    <path class="cls-1" d="m124.85,21.36c.25,0,1,.49,2.24,1.46,1.24.97,1.86,1.57,1.86,1.78s-.2.41-.6.6c-.24-.07-.67-.41-1.3-1.02-.75-.72-1.55-1.63-2.42-2.74.07-.05.14-.08.22-.08Z"/>
    <path class="cls-1" d="m121.89,21.7c-.6.99-1.24,1.83-1.92,2.54-.53.56-.87.84-1.02.84-.11,0-.21-.05-.32-.15-.11-.1-.16-.21-.16-.33,0-.19.28-.54.84-1.06.68-.63,1.54-1.24,2.58-1.84Z"/>
    <path class="cls-1" d="m129.43,18.7c.59,0,1.11.16,1.57.49.46.33.69.69.69,1.09,0,.36-.22.68-.66.95s-.95.41-1.54.41c-.47,0-1.23-.2-2.3-.6-1.12-.41-1.79-.78-2-1.1,1.6-.83,3.01-1.24,4.24-1.24Z"/>
    <path class="cls-1" d="m118.29,18.58c.43,0,1.32.27,2.68.82.67.27,1,.49,1,.66,0,.25-.41.5-1.22.74-1.37.41-2.36.62-2.96.62-.52,0-1-.15-1.44-.44-.44-.29-.66-.62-.66-.98,0-.43.23-.77.69-1.03.46-.26,1.1-.39,1.91-.39Z"/>
    <path class="cls-1" d="m118.95,15.14c.37,0,1.37,1.1,3,3.3-.24,0-.7-.25-1.37-.75-.67-.5-1.22-.97-1.65-1.41-.35-.37-.52-.62-.52-.74,0-.27.18-.4.54-.4Z"/>
    <path class="cls-1" d="m123.55,12.36c.44,0,.79.19,1.06.57.27.38.4.9.4,1.57,0,1-.45,2.31-1.34,3.92h-.24c-.13-.03-.32-.36-.56-1-.49-1.32-.74-2.37-.74-3.16,0-.53.14-.98.42-1.35.28-.37.61-.55,1-.55Z"/>
    <path class="cls-1" d="m128.01,15.3c.17,0,.32.13.44.4-.53.73-1.11,1.37-1.74,1.9-.48.43-.78.64-.9.64h-.3s0-.24,0-.24c0-.25.39-.78,1.18-1.58.73-.75,1.17-1.12,1.32-1.12Z"/>
    <path class="cls-1" d="m116.99,12.76c.27,0,.51.08.74.23s.34.33.34.53c0,.49-.29.74-.88.74-.25,0-.47-.08-.64-.24-.17-.16-.26-.34-.26-.54,0-.15.09-.3.27-.47.18-.17.32-.25.43-.25Z"/>
    <path class="cls-1" d="m129.65,12.98c.53,0,.8.19.8.56,0,.48-.23.72-.7.72-.15,0-.3-.09-.45-.27s-.23-.34-.23-.49c0-.35.19-.52.58-.52Z"/>
    <path class="cls-1" d="m131.69,11.14c.55,0,.82.22.82.66s-.29.68-.86.68c-.15,0-.3-.08-.46-.23-.16-.15-.24-.31-.24-.47,0-.43.25-.64.74-.64Z"/>
    <path class="cls-1" d="m115.17,10.92c.49,0,.74.29.74.88,0,.31-.17.46-.5.46-.56,0-.84-.21-.84-.64,0-.17.06-.33.19-.48.13-.15.26-.22.41-.22Z"/>
  </g>
  <path class="cls-1" d="m159.66,114.78c.02.36,0,.62.06.86.32,1.11.65,2.22,1,3.32.11.33.57.33.78.02.13-.19.22-.42.39-.57.45-.4.94-.76,1.39-1.16.68-.61,1.35-1.24,2-1.87.28-.27.58-.55.76-.89.08-.14-.12-.62-.23-.63-.71-.09-1.38-.24-2.06-.47-.64-.21-1.38-.1-2.08-.13-.31-.01-.64,0-.94-.05-.47-.08-.89.15-.97.62-.06.35-.08.71-.11.96h0Zm-71.06-.4c-.06-.64-.37-1.26-.82-1.29-.48-.03-.98.07-1.46.14-1.21.17-2.41.36-3.62.56-.21.03-.56.11-.58.22-.05.22,0,.57.16.72,1.02.94,2.09,1.83,3.11,2.76.43.39.77.89,1.18,1.3.17.17.4.32.63.36.08.01.25-.31.33-.5.07-.18.04-.41.12-.59.22-.52.54-1,.68-1.54.17-.7.2-1.43.29-2.15h0Zm50.97,62.05c.02.06.03.12.05.18.43-.14.87-.44,1.27-.39,1.02.13,1.64-.38,2.13-1.12.25-.37.45-.85.46-1.29.04-1.6-.02-3.2-.04-4.8-.01-.96-.08-1.09-1.06-.99-1.04.11-2.08.03-3.15.26-1.1.24-2.34-.13-3.52-.28-.48-.06-.94-.27-1.42-.36-.43-.08-.86-.13-1.3-.14-.11,0-.33.19-.32.28.06.95-.19,1.92.31,2.83.25.45.49.96.52,1.45.07,1.03.83,1.68,1.26,2.5.24.46.8.8,1.29,1.07.59.33,1.21.6,1.95.53.65-.06,1.32-.01,1.98-.01,0,.06,0,.12,0,.18-.14.03-.28.06-.41.09h0Zm-34.75-8.26c-.08,1.58-.21,3-.21,4.42,0,.75.01,1.47.41,2.24.69,1.33,1.92,1.42,3.05,1.62.81.14,1.7-.23,2.55-.29,1.05-.07,1.82-.68,2.59-1.26.28-.2.34-.67.59-.95.67-.75.82-1.74,1.23-2.61.17-.37.34-.77.39-1.17.08-.69.05-1.39.11-2.08.04-.5-.17-.7-.61-.6-.54.12-1.05.41-1.59.46-1.36.14-2.74.08-4.11.37-.6.12-1.28-.18-1.92-.26-.42-.05-.84-.06-1.26-.04-.42.02-.84.09-1.22.14h0Zm37.78,16.51s-.02,0-.02,0c0-.76.02-1.52,0-2.28-.02-.51-.28-.82-.83-.83-.67,0-1.35-.02-2.02-.03-.17,0-.34,0-.5-.05-.43-.11-.85-.28-1.28-.35-.56-.09-1.12-.14-1.69-.15-.52,0-1.05.02-1.57.11-.22.04-.38.38-.6.42-.41.08-.52.32-.52.66,0,1.18,0,2.36.05,3.54.01.31.17.62.29.92.16.38.47.74.5,1.13.09,1.01.67,1.75,1.25,2.47.73.9,1.6,1.67,2.36,2.54.53.61,1.03.64,1.44-.06.22-.36.35-.78.57-1.14.47-.76,1-1.49,1.46-2.25.17-.29.14-.73.36-.96.57-.62.77-1.32.74-2.12-.02-.53,0-1.05,0-1.58h0Zm-35.29-3.19s0,.03,0,.04c-.15,0-.29.02-.44.02-1,.05-1.28.31-1.3,1.33-.02,1.26,0,2.53.02,3.79,0,.17.06.35.13.51.24.55.5,1.1.75,1.64.07.14.09.32.18.44.35.4.65.8.82,1.34.15.47.49.88.78,1.29.32.46.66.92,1.05,1.32.09.09.57,0,.65-.13.54-.92,1.47-1.46,2.14-2.28.87-1.06,1.43-2.23,1.97-3.44.15-.34.39-.66.45-1.01.2-.99-.09-2.04.38-3.03.12-.25-.17-.68-.28-1.03-.25-.78-1.02-1.43-1.74-1.39-1.02.06-2.04.16-3.05.29-.49.06-.96.27-1.44.34-.35.05-.71-.02-1.07-.04h0Zm10.92-77.01h.03c0-.55.02-1.1,0-1.64-.04-1.02.24-2.09-.85-2.86-.81-.57-1.48-1.35-2.25-1.98-.76-.61-1.57-1.16-2.37-1.72-.7-.49-1.39-.98-2.12-1.41-.7-.41-1.46-.7-2.17-1.09-.72-.4-1.41-.87-2.12-1.29-.48-.29-.98-.55-1.49-.8-.18-.09-.42-.12-.61-.09-.31.04-.55.09-.32.56.56,1.13.73,2.44,1.53,3.47.72.92,1.34,1.93,2.12,2.79.89.99,1.9,1.88,2.88,2.79,1.31,1.22,2.63,2.43,3.94,3.65.35.33.68.67.99,1.04.41.47.78.97,1.18,1.45.05.06.16.05.22.1.15.12.34.24.42.4.14.28.26.62.61.45.19-.09.36-.44.37-.67.04-1.05.02-2.11.02-3.16h0Zm25.93-13.31c-.5.34-.89.67-1.33.91-.92.48-1.87.91-2.8,1.38-.17.09-.29.3-.46.4-.87.51-1.78.97-2.63,1.5-.93.58-1.84,1.2-2.74,1.84-.76.53-1.54,1.05-2.2,1.69-.42.41-1.17.5-1.25,1.25,0,.03-.06.06-.1.07-.74.13-.72.72-.72,1.26-.01,2.03,0,4.05,0,6.08,0,.15-.01.31.05.43.08.15.21.33.35.36.14.03.32-.1.47-.19.12-.08.2-.2.3-.31.51-.55,1.03-1.09,1.54-1.64.41-.44.78-.92,1.22-1.33.45-.42,1.01-.73,1.45-1.16,1.13-1.11,2.22-2.27,3.34-3.39.87-.87,1.81-1.67,2.62-2.58.51-.58,1.06-1.14,1.4-1.91.29-.65.81-1.21.91-1.97.01-.11.15-.2.19-.32.26-.7.77-1.35.39-2.37h0Zm20.49,78.44s.03,0,.05-.01c0,.3-.01.59,0,.89.03.57-.08,1.21.16,1.68.36.69.94,1.27,1.48,1.85.53.58,1.1,1.14,1.69,1.67.53.47,1.1.88,1.68,1.29.56.4,1.21.69,1.71,1.15.79.71,1.67,1.25,2.62,1.7.33.16.68.29.97.51.37.29.54.35.87,0,.21-.22.27-.51-.11-.7-.07-.03-.06-.22-.08-.34-.2-.97-.4-1.94-.6-2.91,0-.02,0-.05-.01-.06-.56-.48-.37-1.22-.62-1.82-.33-.81-.47-1.7-.64-2.56-.19-.95-.33-1.9-.48-2.86-.08-.55-.33-.9-.91-1.03-.5-.11-.98-.28-1.47-.43-.43-.13-.86-.41-1.29-.4-1.3.03-2.46-.61-3.71-.71-.41-.03-.86.07-1.24.23-.11.04-.05.5-.07.76,0,.08,0,.17-.01.25-.05.72-.1,1.45-.15,2.17.05,0,.09,0,.14,0,.01-.1.03-.21.04-.31h0Zm-81.07-.45c.06,0,.13-.01.19-.02,0-.62,0-1.25,0-1.87,0-.56-.43-.7-.83-.9-.52-.25-.84.23-1.28.28-1.01.12-2,.35-3,.53-.06.01-.11.06-.17.08-.78.25-1.54.58-2.33.73-.94.17-1.26.44-1.35,1.4-.06.64-.1,1.29-.26,1.9-.27,1.04-.74,2.02-.68,3.13.01.21.03.46-.07.62-.61.95-.81,1.98-.85,3.1-.02.42-.27.87-.54,1.22-.35.45-.16.79.11,1.1.28.31.57.19.85-.09.22-.22.5-.39.78-.55.69-.42,1.41-.79,2.07-1.23.67-.45,1.23-1.11,1.95-1.43,1.11-.5,1.84-1.44,2.77-2.13.85-.62,1.42-1.62,2.12-2.45.76-.89.36-1.99.71-2.95-.06-.01-.12-.03-.18-.04-.03.15-.07.31-.13.59v-1.47c.04.18.08.32.11.45h0Zm-2.38-90.48c1.42-.04,1.54-.34,1.2-1.3-.34-.96-.81-1.9-1.38-2.74-.52-.77-1.23-1.42-1.93-2.06-.7-.64-1.48-1.2-2.22-1.8-.46-.36-.89-.77-1.38-1.07-.94-.56-1.92-1.05-2.88-1.58-.22-.12-.41-.28-.62-.4-.47-.27-.93-.6-1.44-.76-.34-.11-.89-.12-1.11.09-.29.26-.33.79-.49,1.19-.24.6-.51,1.18-.75,1.78-.22.56-.43,1.12-.61,1.69-.22.67-.35,1.37-.61,2.03-.3.76-.14,1.39.59,1.62.68.21,1.39.33,2.09.44.62.09,1.29,0,1.88.19.95.3,1.84.8,2.87.84.1,0,.22.03.3.08,1.08.73,2.38.66,3.56,1.03.43.14.91.1,1.36.21.53.13,1.05.34,1.57.51h0Zm85.88-.13s0,.03,0,.05c.52-.08,1.04-.12,1.55-.25.68-.18,1.34-.45,2.02-.63.63-.17,1.29-.25,1.93-.4.81-.2,1.61-.41,2.4-.66.75-.23,1.47-.58,2.24-.73,1.01-.21,2.06-.09,3.08-.46.91-.33,1.35-.88,1.03-1.81-.14-.41-.25-.84-.38-1.26-.15-.48-.23-1.03-.5-1.43-.69-1.01-.93-2.16-1.29-3.28-.1-.32-.35-.71-.62-.82-.31-.13-.75-.17-1.06.28-.17.25-.56.37-.87.53-.79.41-1.61.76-2.38,1.21-.77.45-1.49.98-2.22,1.49-.64.45-1.29.89-1.91,1.37-.58.46-1.15.93-1.67,1.46-.5.51-.98,1.07-1.36,1.67-.48.76-.9,1.56-1.27,2.38-.14.31-.15.73-.08,1.08.02.12.46.18.71.22.21.03.42,0,.63,0h0Zm-42.81-29.69c-.15.07-.44.1-.56.26-.83,1.15-1.62,2.35-2.45,3.5-.52.72-1.12,1.37-1.64,2.08-.4.56-.91,1.12-.55,1.9.34.73.71,1.45,1.07,2.17.19.37.42.71.58,1.09.39.92.62,1.95,1.17,2.77.8,1.21.7,2.65,1.27,3.91.32.72.32,1.57.5,2.36.05.2.27.36.4.54.14-.17.36-.31.42-.5.19-.63.29-1.28.47-1.91.28-.97.56-1.94.89-2.9.3-.9.66-1.77,1-2.66.18-.46.32-.95.56-1.37.28-.49.75-.87.76-1.49,0-.1.02-.24.09-.29.59-.41.73-1,.9-1.66.19-.74-.03-1.22-.44-1.73-.48-.61-.97-1.23-1.42-1.87-.44-.64-.81-1.32-1.27-1.95-.54-.75-1.14-1.46-1.76-2.25h0Zm38.15,22.2s.04,0,.07,0c0-.82,0-1.65,0-2.47,0-.78-.2-.98-.97-.86-.32.05-.61.3-.93.43-.51.21-1.04.36-1.54.59-.77.36-1.52.77-2.29,1.15-.33.17-.66.45-1,.46-1.25.04-2.17,1.15-3.45,1.05-.08,0-.16.13-.25.16-.52.22-1.03.53-1.57.61-.52.07-.75.38-.95.74-.16.29-.22.65-.26.99-.08.74-.18,1.48-.16,2.22.02.72.17,1.43.27,2.15.15,1.2.28,2.41.49,3.6.03.17.44.35.7.38.34.05.71-.03,1.06-.07.63-.06,1.28.1,1.87-.37.33-.27.8-.4,1.23-.51.79-.2,1.59-.32,2.38-.49.71-.15,1.41-.33,2.11-.5.04,0,.08-.03.11-.06.52-.5,1.05-.93,1.49-1.55.7-.99.67-2.14,1.18-3.13.21-.4.37-.85.39-1.29.06-1.08.02-2.16.02-3.24h0Zm-13.63,101.26s.08.02.12.03c0,.36.02.72,0,1.08-.04.72.22,1.21.94,1.42.56.16,1.14.26,1.66.48,1.02.44,2.01.96,3.02,1.44.19.09.39.16.59.24.89.36,1.8.67,2.66,1.08,1.01.49,1.98,1.07,2.98,1.58.09.05.33,0,.38-.09.17-.27.38-.57.39-.87.03-2,.01-4.01.01-6.01,0-.62.04-1.25,0-1.87-.02-.34-.21-.66-.28-.99-.06-.3-.03-.62-.1-.92-.14-.64-.39-1.28-.44-1.92-.04-.56-.37-.88-.68-1.23-.72-.81-1.76-.42-2.64-.6-.77-.15-1.62.06-2.43.13-.46.04-.96,0-1.37.17-.86.36-1.71.67-2.64.82-.71.11-1.1.52-1.15,1.19-.07.9-.32,1.79-.51,2.68-.15.73-.33,1.45-.5,2.17h0Zm-62.16,3.54h-.02c0,.97-.01,1.94,0,2.91.01.72.72,1.17,1.35.86.57-.28,1.12-.61,1.68-.91.74-.4,1.49-.79,2.23-1.19.27-.14.52-.44.78-.44,1.07.01,1.67-1.21,2.78-1.01.04,0,.09-.08.14-.11.63-.35,1.21-.75,1.99-.78,1-.04,1.7-.85,1.7-1.83,0-.82-.02-1.65-.06-2.47-.02-.35-.09-.71-.18-1.05-.21-.81-.51-1.61-.66-2.43-.15-.78-.39-1.08-1.18-1.18-.52-.07-1.04-.14-1.54-.28-.65-.18-1.27-.6-1.91-.61-1.37-.02-2.72-.27-4.11-.08-1.44.2-2.07.74-2.18,2.17-.01.17-.03.34-.06.5-.25,1.31-.61,2.61-.74,3.94-.13,1.32-.03,2.66-.03,3.99h0Zm12.72-100.27c-.05,0-.11-.02-.16-.02,0-.17.03-.34,0-.51-.14-.71-.26-1.43-.46-2.13-.25-.89-1.22-.68-1.83-1.05-.58-.36-1.37-.39-2.06-.57-.14-.04-.3-.06-.41-.15-.52-.43-1.1-.68-1.77-.73-.16-.01-.38-.04-.47-.14-.69-.79-1.79-.71-2.59-1.25-.27-.18-.59-.28-.89-.42-.46-.2-1.03-.3-1.37-.63-.42-.41-.86-.35-1.22-.19-.22.1-.39.59-.39.91,0,2.03-.14,4.07.34,6.07.22.91.2,1.92.6,2.73.44.9.86,1.91,1.81,2.47.29.17.61.28.93.39.41.14.82.25,1.24.35.73.17,1.39.61,2.2.54.31-.03.65.1.95.21.6.21,1.17.53,1.78.66.61.13,1.26.04,1.88.14.45.07.84-.08.91-.54.04-.23.03-.46.07-.69.3-1.82.6-3.63.91-5.45h0Zm82.87,50.91c-.2-.24-.39-.67-.7-.79-.75-.3-1.57-.43-2.35-.67-.66-.21-1.29-.51-1.95-.72-.64-.21-1.29-.39-1.94-.54-.51-.11-1.05-.11-1.55-.24-.68-.18-1.32-.52-2-.63-1.03-.17-2.1-.37-3.12-.26-.73.08-1.6-.1-2.26.55-.28.28-.79.32-1.16.53-.67.39-1.31.82-1.95,1.24-.67.44-1.37.81-1.96,1.42-.66.68-1.57,1.13-2.35,1.69-.44.32-.81.76-1.28,1.01-.77.41-1.45.84-1.65,1.74.61.34,1.15.84,1.78.97,1.26.26,2.57.44,3.85.44,1.3,0,2.6-.25,3.9-.38.29-.03.6.03.88-.04.73-.19,1.44-.45,2.16-.65.79-.22,1.58-.42,2.38-.62.78-.2,1.56-.38,2.34-.58.17-.05.32-.17.48-.24.43-.19.86-.39,1.31-.54.47-.16.98-.21,1.42-.43.59-.29,1.16-.56,1.83-.54.13,0,.26-.11.39-.16.57-.23,1.12-.55,1.7-.65.68-.11,1.4-.03,1.8-.91h0Zm-116.3.18c.01.1.02.2.03.3.38.12.76.26,1.14.34.42.1.89.05,1.26.23.74.36,1.47.72,2.32.72.16,0,.34.05.47.15.56.41,1.16.72,1.88.73.25,0,.53.03.73.15.7.41,1.41.75,2.25.77.18,0,.37.07.55.13.83.26,1.65.52,2.48.77.24.07.5.06.74.14.95.32,1.87.72,2.91.74.87.02,1.73.2,2.6.3.29.04.6.11.89.08.74-.07,1.47-.2,2.21-.29.93-.12,1.91.07,2.75-.53.37-.26.78-.46,1.12-.73.06-.05-.02-.43-.15-.53-1.02-.82-2.05-1.61-3.11-2.39-.68-.5-1.5-.84-2.06-1.44-.44-.47-.95-.83-1.46-1.16-1.1-.71-2.28-1.29-3.43-1.92-.29-.16-.58-.36-.9-.42-1.63-.33-3.25.01-4.88.04-.08,0-.16.04-.24.06-1.06.32-2.08.83-3.24.8-.12,0-.23.08-.35.11-.95.29-1.91.58-2.85.89-.18.06-.34.19-.53.26-.54.2-1.09.39-1.64.59-.19.07-.42.1-.57.23-.33.27-.62.58-.93.87h0Zm78.36-50.04s.08-.03.11-.05c-.14-.74-.27-1.48-.45-2.21-.03-.12-.34-.29-.43-.25-.64.29-1.23.69-1.88.99-.63.29-1.2.69-1.92.81-.23.04-.44.18-.65.3-.32.17-.62.45-.95.51-1.11.19-1.93.95-2.92,1.37-.21.09-.36.3-.55.46-.5.42-1.07.78-1.49,1.27-.58.66-1.08,1.4-1.58,2.14-.7,1.03-1.02,2.2-1.45,3.3-.55,1.42-.21,3.05-.51,4.58-.22,1.13.05,2.34.04,3.52,0,.28-.1.53.24.57.28.03.81-.03.81-.09.05-.69.76-.77,1.07-1.21.33-.48.77-.9,1.22-1.27.55-.44,1.16-.81,1.75-1.19.65-.42,1.3-.82,1.96-1.21.55-.32,1.13-.59,1.68-.9.25-.14.47-.32.71-.46.39-.22.78-.42,1.17-.63.12-.07.22-.25.32-.24.51.04.74-.39,1.09-.62.16-.11.32-.25.5-.29.94-.24,1.35-.75,1.35-1.73,0-.91-.04-1.82.03-2.72.1-1.31.29-2.61.43-3.92.04-.37.04-.74.05-1.11.04,0,.07,0,.11-.01.04.11.08.21.12.32h0Zm-25.28,12.06c-.02-.19,0-.32-.04-.43-.22-.73-.62-1.46-.65-2.2-.07-1.33-.74-2.39-1.27-3.51-.41-.86-.99-1.65-1.61-2.38-.51-.6-1.13-1.14-1.79-1.58-.63-.42-1.2-.91-2-1.12-.81-.2-1.54-.76-2.31-1.15-.27-.14-.53-.29-.81-.4-.45-.18-.91-.31-1.36-.5-.24-.1-.44-.27-.67-.39-.46-.25-.95-.45-1.38-.75-.46-.33-.78-.28-.92.26-.07.26-.07.55-.05.82.1,1.23.24,2.47.31,3.7.09,1.68.11,3.37.2,5.05.02.3.14.67.35.86.54.49,1.14.91,1.74,1.32.61.41,1.24.8,1.89,1.15.27.14.71.08.87.27.42.5.92.78,1.54.89.11.02.21.13.31.19.3.18.59.36.89.54.47.27.97.51,1.42.82.45.31.85.69,1.27,1.05.48.4.96.8,1.42,1.23.57.54.88,1.32,1.65,1.71.48.24.56.11.67-.31.45-1.72.53-3.44.09-5.17-.01-.05,0-.11,0-.19.07.07.11.12.21.22h0Zm11.02,98.87c-.14-.58-.29-1.16-.41-1.75-.19-.88-.39-1.76-.52-2.65-.1-.72-.08-1.43-.47-2.11-.29-.49-.36-1.11-.53-1.68-.04-.12-.08-.25-.15-.35-.42-.56-.79-1.13-.74-1.87,0-.09-.06-.2-.11-.29-.48-.8-.95-1.59-1.44-2.38-.38-.61-.76-1.22-1.21-1.78-.1-.12-.63-.09-.72.04-.51.74-.99,1.51-1.42,2.3-.63,1.18-1.25,2.37-1.8,3.58-.37.82-.63,1.7-.93,2.55-.13.37-.31.73-.38,1.11-.31,1.57-.58,3.15-.9,4.72-.28,1.41.32,2.62,1.07,3.65,1.04,1.41,2.33,2.64,3.54,3.92.29.31.65.62,1.04.76.7.24,1.03-.42,1.44-.79.44-.38.81-.84,1.2-1.27.69-.77,1.41-1.52,2.06-2.32.25-.32.24-.92.53-1.12.87-.59.72-1.43.85-2.27h0Zm43.09-77.3s.04-.07.05-.11c.31-.03.68.03.93-.11,1.03-.59,2.23-.76,3.18-1.56.94-.79,2.08-1.34,3.05-2.11,1.04-.82,1.98-1.77,2.97-2.65.63-.56,1.25-1.13,1.9-1.67.81-.68,1.68-1.31,2.46-2.03.63-.58,1.23-1.23,1.7-1.93.42-.63,1.21-1.04,1.19-1.95,0-.11.12-.22.18-.32.39-.71.8-1.43.65-2.29-.03-.16-.15-.45-.23-.45-.69-.01-1.4-.06-2.06.08-.85.17-1.67.5-2.5.76-.4.12-.82.22-1.21.36-.42.15-.82.35-1.24.5-.57.2-1.17.34-1.73.56-.65.26-1.29.57-1.92.88-.24.12-.45.29-.67.43-.65.42-1.33.8-1.93,1.28-.44.34-.77.82-1.18,1.2-.58.54-1.16,1.11-1.81,1.55-.75.51-1.53,1.02-2.29,1.51-1.27.83-2.6,1.52-3.96,2.16-.48.23-1.02.33-1.5.57-1.04.53-2.06,1.1-3.08,1.67-.14.08-.25.31-.28.48-.02.12.09.37.19.4,1.13.26,2.09,1.1,3.34.94.24-.03.5.05.74.13.72.23,1.42.5,2.14.74.43.14.87.25,1.3.4.54.18,1.07.39,1.6.59h0Zm-115.07-17.4c-.02.05-.03.1-.05.15-1.27-.04-1.35.04-1.18,1.3.02.18.1.36.18.52.2.38.54.73.61,1.13.17.87.8,1.41,1.27,2.07.39.55.92,1.01,1.41,1.49.73.72,1.45,1.43,2.21,2.11.42.39.92.7,1.34,1.09.75.68,1.47,1.4,2.23,2.08.56.5,1.17.96,1.75,1.45.43.36.82.79,1.28,1.1.79.53,1.62.99,2.44,1.49.23.14.44.31.69.41.53.21,1.08.36,1.6.59.81.35,1.6.49,2.42.01.39-.22.82-.37,1.25-.5.61-.18,1.24-.29,1.86-.46,1.58-.43,3.22-.66,4.7-1.39.2-.1.33-.38.43-.6.02-.04-.26-.23-.42-.34-.17-.11-.36-.19-.54-.3-.3-.18-.57-.41-.88-.55-.91-.39-1.86-.69-2.74-1.12-.98-.48-1.92-1.06-2.86-1.6-1.15-.66-2.35-1.24-3.41-2.02-.9-.66-1.62-1.56-2.43-2.35-.35-.34-.68-.72-1.08-.99-.74-.51-1.51-.97-2.29-1.41-.54-.31-1.11-.57-1.69-.8-.65-.25-1.32-.44-1.98-.66-.08-.03-.17-.02-.24-.07-.8-.5-1.66-.82-2.62-.82-.12,0-.25-.03-.37-.06-.97-.32-1.93-.64-2.89-.96h0Zm83.27-43.22c-.46.37-.98.66-1.34,1.09-.81.99-1.55,2.03-2.29,3.07-.47.65-.96,1.3-1.34,2.01-.53.98-.97,2-1.42,3.02-.19.42-.33.86-.49,1.3-.02.06,0,.14-.04.18-.56.52-.77,1.19-.84,1.92-.01.12-.03.25-.08.37-.42.98-.89,1.94-1.25,2.93-.35.94-.6,1.91-.88,2.87-.17.59-.32,1.19-.48,1.79-.26.98-.5,1.96-.77,2.94-.2.71-.22,1.41,0,2.3.42-.4.7-.73,1.04-.96.68-.47,1.2-1.1,1.94-1.53.69-.4,1.47-.74,2.11-1.24.16-.12.32-.25.5-.33.81-.35,1.64-.65,2.43-1.03.82-.39,1.6-.84,2.4-1.28.25-.14.49-.41.73-.41,1.07,0,1.39-.88,1.78-1.56.4-.69.54-1.51.5-2.35-.02-.53.09-1.08.21-1.61.18-.77.47-1.51.65-2.28.17-.7.27-1.42.39-2.14.03-.2.05-.42.01-.62-.09-.46-.35-.92-.32-1.37.07-1.33-.72-2.37-1.11-3.52-.3-.89-.96-1.66-1.45-2.49-.18-.31-.35-.63-.59-1.06h0Zm-22.77,25.55c.04-.16.12-.32.1-.47-.18-1.62-.37-3.24-.57-4.86,0-.06-.05-.12-.07-.18-.24-.81-.48-1.61-.71-2.42-.09-.32-.14-.65-.25-.96-.18-.47-.44-.92-.61-1.39-.36-.97-.64-1.97-1.05-2.91-.33-.76-.8-1.46-1.22-2.19-.13-.22-.37-.39-.42-.62-.22-1.01-.94-1.73-1.43-2.58-.21-.36-.4-.73-.64-1.07-.23-.33-.51-.62-.76-.94-.41-.52-.8-1.06-1.21-1.58-.46-.59-1.09-1.1-1.37-1.76-.24-.55-.74-.71-1.04-1.13-.19-.26-.73-.05-.82.28-.04.14-.05.3-.12.42-.42.73-.88,1.43-1.28,2.17-.26.49-.34,1.09-.66,1.52-.78,1.03-.68,2.26-.83,3.42-.11.81.09,1.66.19,2.49.04.34.2.66.31.98.17.53.4,1.05.5,1.59.21,1.18-.03,2.39.46,3.57.35.85.82,1.53,1.58,1.96,1.03.58,2.11,1.05,3.19,1.54.45.2.97.25,1.41.46.86.41,1.68.88,2.52,1.33.19.1.37.24.56.36.69.43,1.39.84,2.06,1.29.75.5,1.08,1.54,2.18,1.68h0Zm-2.7,59.24c.1-.08.44-.22.54-.46.21-.53.37-1.11.42-1.68.08-.9.16-1.83.03-2.71-.1-.68-.47-1.35-.84-1.95-.13-.22-.63-.2-.94-.32-.91-.35-1.76-.91-2.78-.94-.08,0-.16-.06-.23-.11-.52-.36-1.02-.72-1.69-.73-.13,0-.25-.13-.37-.2-.33-.2-.65-.51-1-.57-1.09-.18-1.81-1-2.75-1.44-.46-.21-.97-.36-1.39-.64-.58-.38-1.08-.87-1.63-1.29-.65-.48-1.35-.89-1.98-1.39-.47-.37-.83-.87-1.28-1.27-.56-.5-1.17-.94-1.73-1.43-.23-.2-.36-.5-.59-.7-.64-.53-1.31-1.01-1.95-1.53-.49-.4-.87-.32-.98.28-.18.94-.38,1.89-.47,2.84-.17,1.84.17,3.61.83,5.33.16.4.37.77.57,1.15.39.73.73,1.5,1.19,2.19.44.64.99,1.21,1.52,1.79.43.47.85.99,1.37,1.32.7.44,1.29,1.12,2.22,1.12.03,0,.06.07.09.08.66.27,1.22.8,2.01.71.2-.02.42.05.62.09,1.13.26,2.25.57,3.38.78.76.14,1.56.09,2.32.24,1.08.22,2.09.67,3.23.73.72.03,1.43.43,2.26.7h0Zm15.44-3.72c.11.52.29,1.22.41,1.93.07.39.03.8.08,1.2.08.64.48.78,1.03.47.41-.23.88-.55,1.31-.54,1.5.03,2.84-.65,4.28-.84,1.3-.17,2.62-.09,3.89-.57.85-.32,1.8-.36,2.71-.52.1-.02.2-.06.29-.11.51-.25,1.03-.48,1.52-.77.74-.44,1.46-.92,2.18-1.4.16-.1.29-.24.42-.37.43-.41.91-.77,1.28-1.23.48-.6.88-1.25,1.28-1.91.51-.84,1.1-1.65,1.43-2.56.33-.91.39-1.93.56-2.9.1-.59.26-1.18.27-1.77,0-.49-.22-.98-.27-1.48-.07-.74-.11-1.46-.48-2.16-.24-.46-.48-.43-.78-.21-.38.28-.7.63-1.05.95-.67.62-1.33,1.25-2.02,1.84-1.17,1-2.36,1.97-3.54,2.95-.13.11-.26.21-.4.3-.58.38-1.16.76-1.73,1.14-.79.53-1.55,1.11-2.38,1.57-.93.52-1.91.94-2.88,1.37-.53.24-1.1.38-1.64.6-.88.37-1.74.8-2.64,1.14-.65.25-1.34.38-2,.58-.1.03-.19.15-.25.25-.55.88-.77,1.85-.88,3.06h0Zm-46.51-45.04c0-.4.08-.83-.02-1.2-.1-.34-.33-.76-.62-.91-.5-.25-1.08-.35-1.64-.44-1.27-.21-2.55-.37-3.83-.55-.1-.01-.19-.08-.28-.11-.29-.09-.57-.22-.86-.26-.56-.08-1.16-.02-1.69-.18-1-.31-1.92-.87-3.03-.86-.21,0-.42-.18-.63-.26-.53-.19-1.07-.37-1.61-.54-.43-.13-.87-.22-1.29-.37-.31-.11-.58-.34-.89-.41-.22-.05-.58.01-.7.17-.79,1.06-1.25,2.19-.63,3.52.2.43.38.89.45,1.36.13.86.03,1.75.55,2.54.3.47.48,1.02.79,1.48.44.66,1.05,1.22,1.42,1.91.53.98,1.46,1.51,2.21,2.23.64.61,1.46,1.05,2.19,1.58.16.11.27.3.43.41.66.42,1.34.82,2.01,1.23.61.37,1.21.75,1.83,1.09.4.22.84.35,1.23.59.84.53,1.65,1.12,2.49,1.66.78.49,1.59.93,2.37,1.41.46.28.92.58,1.36.89.4.29.8.58,1.14.94.35.37.66.47.96.03.21-.3.42-.66.47-1.01.11-.7.22-1.44.12-2.13-.16-1.12-.48-2.22-.73-3.32-.03-.14-.08-.27-.12-.41-.19-.71-.67-1.28-.8-2.07-.16-.97-.83-1.8-1.05-2.82-.15-.7-.77-1.27-.73-2.07,0-.18-.02-.41-.13-.54-.6-.76-.77-1.63-.73-2.57h0Zm96.78-3.68c-.22-.68-.37-1.29-.6-1.86-.18-.44-.8-.7-1.09-.52-.73.45-1.48.83-2.38.77-.18-.01-.38.04-.54.13-.65.36-1.29.71-2.07.72-.35,0-.75.03-1.05.18-.97.49-1.96.85-3.07.76-.16-.01-.33.04-.49.09-.81.24-1.61.56-2.43.7-.95.17-1.93.18-2.9.25-.82.06-1.53.78-1.53,1.61,0,.55,0,1.1-.04,1.65-.03.37-.1.74-.21,1.09-.21.69-.45,1.36-.67,2.05-.06.18.02.45-.09.55-.7.7-.79,1.67-1.16,2.51-.37.85-.65,1.73-.97,2.6-.16.45-.36.89-.45,1.35-.22,1.16-.43,2.33-.54,3.51-.08.86-.18,1.74.47,2.52.29.35.56.31.8.15.6-.4,1.15-.89,1.74-1.31.63-.44,1.3-.82,1.91-1.28.59-.44,1.2-.85,1.86-1.19.27-.14.48-.39.74-.54.75-.41,1.53-.76,2.27-1.19.75-.44,1.45-.96,2.18-1.44.53-.35,1.08-.66,1.62-1.01.71-.46,1.42-.93,2.12-1.4.14-.1.23-.28.36-.4.52-.44,1.08-.84,1.57-1.31.45-.42.85-.89,1.23-1.38.56-.71,1.24-1.31,1.59-2.21.34-.87.87-1.67.87-2.65,0-.04.02-.08.03-.12.3-1.14.6-2.27.9-3.39h0Zm-51.32,37.58c.24.4.36.81.63,1,.4.28.86.22,1.23-.2.13-.14.4-.17.61-.22.28-.07.59-.05.85-.17.72-.32,1.36-.85,2.22-.78.17.01.34-.11.51-.19.45-.2.89-.44,1.34-.62.92-.38,1.88-.67,2.76-1.12.84-.44,1.61-1.01,2.37-1.58.91-.67,1.79-1.39,2.65-2.11.56-.47,1.06-1.01,1.61-1.5.62-.56,1.25-1.1,1.88-1.64.79-.68,1.54-1.41,2.39-2,.81-.56,1.46-1.12,1.31-2.23-.06-.43-.01-.89.02-1.33.02-.31.08-.62.15-.92.2-.81.45-1.61.62-2.42.11-.51-.01-1.09.17-1.56.35-.92.96-1.76.87-2.82,0-.06.05-.12.08-.19.24-.52.53-1.03.71-1.58.12-.35-.02-.83.17-1.1.46-.65.74-1.31.78-2.1.01-.26.1-.54.21-.78.36-.79.73-1.57.7-2.48,0-.23.06-.46.11-.68.1-.46.24-.91.33-1.38.1-.53-.2-.79-.68-.7-.78.15-1.55.4-2.32.61-.02,0-.03.02-.05.04-.43.34-.84.73-1.43.8-.15.02-.29.16-.4.28-.49.49-.98.95-1.13,1.71-.13.62-.72,1.2-.7,1.79.06,1.53-.85,2.76-1.11,4.19-.17.98-.79,1.89-1.23,2.82-.09.2-.3.34-.41.53-.24.42-.43.87-.7,1.27-.31.46-.68.88-1.04,1.31-.55.65-1.15,1.27-1.68,1.94-.63.81-1.71,1.12-2.24,2.03-.03.05-.11.06-.16.1-.7.56-1.42,1.08-2.08,1.68-.84.76-1.62,1.58-2.43,2.37-.94.91-1.9,1.8-2.8,2.74-.94.99-1.84,2.03-2.72,3.08-.31.37-.53.82-.73,1.26-.43.92-.82,1.86-1.25,2.85h0Zm-12.36.17c-.24-.93-.36-1.79-.7-2.55-.29-.65-.83-1.2-1.28-1.78-.76-.97-1.48-1.97-2.31-2.87-.91-.98-1.92-1.86-2.88-2.79-.71-.69-1.41-1.39-2.12-2.08-.58-.57-1.13-1.17-1.75-1.68-.76-.62-1.63-1.09-2.36-1.74-.9-.79-1.73-1.67-2.53-2.57-.48-.54-.86-1.18-1.23-1.8-.37-.61-.71-1.24-1.02-1.88-.21-.44-.37-.9-.54-1.36-.28-.74-.55-1.49-.82-2.23-.05-.14-.1-.28-.15-.41-.23-.63-.63-1.26-.65-1.9-.05-1.22-.48-2.28-1.09-3.27-.29-.47-.76-.85-1.2-1.2-.28-.22-.67-.3-1-.46-.25-.13-.5-.43-.73-.41-.69.04-1.13-.47-1.71-.64-.2-.06-.5-.19-.61-.1-.29.22-.64.43-.52.95.22.93.35,1.88.52,2.81.03.16.06.33.11.49.25.75.51,1.5.76,2.25.05.14.03.29.08.43.27.81.55,1.61.83,2.42.03.1.04.21.09.29.4.72.85,1.41.81,2.28,0,.16.13.32.19.49.21.56.45,1.12.6,1.7.12.46.09.96.2,1.43.22.98.53,1.94.73,2.93.11.55.14,1.15.04,1.7-.18,1.04.44,1.58,1.12,2.14,1.48,1.22,2.95,2.44,4.4,3.69,1.48,1.27,2.83,2.7,4.47,3.78.84.55,1.68,1.11,2.56,1.57.78.41,1.65.66,2.44,1.04.81.4,1.59.81,2.52.86.21.01.4.17.6.25.47.2.93.4,1.4.59.34.13.71.19,1.01.38.44.27.89.35,1.28.06.24-.17.32-.56.45-.82h0Zm46.65,70.61c-.16.68-.39,1.25.03,1.86.12.18.03.49.08.73.15.77.37,1.53.47,2.3.03.24-.19.54-.34.78-.48.74-1.34.93-2.03,1.36-.2.13-.39.34-.6.36-.61.08-.81-.42-.97-.86-.44-1.22-.51-2.49-.5-3.77.02-1.81.02-3.62.05-5.44,0-.33.08-.66.12-.99.09-.71-.74-2.09-1.4-2.39-.31-.14-.57-.41-.89-.51-1.19-.35-2.09-1.39-3.44-1.37-.38,0-.76-.36-1.16-.52-.34-.14-.71-.34-1.04-.3-.81.1-1.38-.51-2.11-.6-.75-.1-1.51-.23-2.27-.25-.3,0-.51.24-.5.65.03,1.54.04,3.08,0,4.62-.01.61.24,1.04.59,1.49.74.97,1.42,1.99,2.14,2.98.53.73,1.11,1.43,1.62,2.17.24.35.37.78.58,1.16.43.78.93,1.52,1.33,2.32.38.76.65,1.57,1.01,2.35.19.41.49.76.66,1.17.09.21.09.67,0,.71-.8.35-1.4,1.1-2.38,1.12-1.01.03-1.6-.35-1.88-1.31-.14-.47-.33-.92-.55-1.36-.44-.88-.87-1.77-1.37-2.62-.38-.65-.84-1.25-1.3-1.85-.43-.57-.91-1.12-1.36-1.68-.27-.33-.84-.42-1.08-.1-.71.94-1.38,1.91-2.07,2.87-.33.47-.61.98-.97,1.42-.52.65-.59,2.13-.13,2.8.27.41.43.89.66,1.33.12.23.29.44.41.67.3.58.63,1.16.86,1.77.07.18-.1.55-.27.69-.84.7-1.81,1.03-2.92.93-.44-.04-.67-.19-.84-.62-.14-.34-.16-.83-.72-.92-.46-.07-.84.12-1,.57-.52,1.46-1.08,1.91-2.3,1.91-.59,0-1.17.19-1.76.25-.43.04-1.2.14-1.25,0-.17-.46-.3-1.21-.05-1.49.62-.68.73-1.56,1.18-2.29.39-.64.68-1.34,1.01-2.01.27-.55.57-1.08.79-1.64.21-.54.16-1.03-.2-1.58-.91-1.4-2.29-2.26-3.45-3.38-.4-.39-.9-.28-1.35.12-.45.41-.99.72-1.42,1.15-.45.45-.84.98-1.22,1.5-.52.68-1.03,1.37-1.5,2.08-.26.4-.45.85-.65,1.28-.04.08-.03.23.01.31.37.7.76,1.39,1.12,2.09.23.45.4.92.61,1.38.27.57.54,1.14.82,1.7.39.79.07,1.39-.8,1.42-.82.03-1.65.02-2.47,0-.2,0-.49-.12-.59-.28-.4-.67-.73-1.38-1.11-2.06-.07-.13-.23-.31-.32-.3-.16.02-.35.15-.43.29-.37.68-.69,1.39-1.09,2.06-.1.17-.41.29-.62.3-.76.04-1.52.03-2.28.01-1.03-.02-1.33-.58-.87-1.49.44-.9.8-1.84,1.22-2.75.13-.29.35-.55.51-.83.13-.22.21-.48.36-.69,1.01-1.32-.16-2.18-.68-3.15-.33-.62-.71-1.25-1.2-1.75-.91-.92-1.89-1.77-2.9-2.58-.17-.13-.7,0-.94.19-.79.58-1.57,1.2-2.28,1.89-.55.54-1.04,1.17-1.42,1.83-.19.33-.39.87.15,1.21.03.02.09.05.09.08.04.89.62,1.54,1.01,2.27.24.45.5.88.74,1.32.07.12.09.27.14.4.2.44.44.86.59,1.31.18.53.41,1.08.4,1.62-.02.59-.63.77-1.31.58-.6-.17-1.22-.39-1.82-.37-.92.03-1.5-.4-1.94-1.11-.2-.32-.35-.67-.48-1.03-.22-.58-.57-.7-.98-.24-.31.33-.52.75-.8,1.11-.09.12-.21.27-.34.29-1.29.22-2.43-.18-3.45-.94-.14-.1-.21-.47-.14-.63.33-.68.85-1.29,1.08-2,.34-1.04,1.3-1.83,1.15-3.05-.07-.59.02-1.17-.47-1.68-.49-.5-.88-1.11-1.27-1.7-.41-.62-.78-1.26-1.13-1.91-.3-.55-.75-.83-1.3-.72-.1.02-.24.03-.29.1-.36.48-.71.97-1.05,1.47-.37.53-.72,1.06-1.08,1.59-.51.75-1.04,1.48-1.5,2.25-.26.43-.38.94-.59,1.4-.28.61-.55,1.23-.87,1.82-.11.2-.38.41-.61.45-1.21.22-2.18-.36-3.04-1.1-.43-.36,0-.77.14-1.14.08-.19.21-.36.29-.55.22-.5.41-1.01.65-1.5.41-.86.84-1.71,1.28-2.56.12-.24.29-.45.43-.67.76-1.21,1.48-2.45,2.28-3.64.46-.69,1.13-1.24,1.55-1.95.47-.81,1.23-1.47,1.13-2.61-.13-1.45-.04-2.91-.02-4.37,0-.5-.17-.73-.69-.74-1.01-.01-1.98.05-2.82.71-.18.14-.48.16-.72.16-.86-.01-1.62.25-2.31.75-.18.13-.47.2-.69.18-.75-.08-1.23.43-1.81.72-.48.24-1.01.38-1.45.66-.5.32-.87.87-1.39,1.12-1.16.56-.77,1.54-.78,2.41-.03,2.8,0,5.61-.07,8.41-.02.65-.25,1.32-.84,1.79-.32.26-.57.26-.88,0-.37-.32-.71-.7-1.28-.67-.1,0-.22-.17-.33-.27-.28-.27-.58-.54-.82-.84-.11-.14-.18-.4-.12-.55.5-1.34.73-2.72.68-4.14,0-.25-.17-.5-.26-.76-.09-.02-.17-.04-.26-.06-.44.6-.8,1.29-1.34,1.79-.67.62-.91,1.66-1.85,1.96-.24.08-.62-.16-.89-.32-.36-.22-.65-.56-1.01-.77-.71-.4-.84-.9-.38-1.56.54-.8,1.02-1.64,1.59-2.42.5-.7,1.11-1.32,1.62-2.01.5-.67.95-1.39,1.42-2.09.16-.24.37-.45.51-.71.66-1.17.15-2.21-.39-3.24-.16-.3-.32-.66-.58-.85-.19-.14-.63-.15-.83-.03-.86.53-1.58,1.28-2.58,1.58-.04.01-.1.02-.11.05-.44.78-1.33.83-2.01,1.22-.95.54-1.98.93-2.94,1.43-.99.52-1.94,1.09-2.9,1.66-.44.26-1.32.16-1.72-.24-.5-.49-1.02-.97-1.48-1.5-.14-.16-.15-.5-.11-.74.06-.37.21-.73.31-1.1.27-1.04.54-2.08.8-3.13.04-.16.06-.33.06-.5,0-.85.35-1.57.76-2.3.21-.37.1-.91.2-1.36.23-.99.51-1.96.74-2.94.2-.86.19-1.59-1.05-1.5-.98.07-1.86.31-2.7.86-.45.3-1.04.36-1.55.58-.66.28-1.3.58-1.94.91-1.09.55-2.16,1.13-3.24,1.69-.49.25-1.11.08-1.51-.47-.62-.85-1.23-1.72-1.79-2.61-.2-.32-.23-.69.29-.91.38-.16.7-.49,1.06-.72.15-.09.35-.11.52-.17.26-.1.54-.18.78-.32.44-.28.81-.68,1.42-.63.13.01.27-.25.43-.32.44-.2.9-.36,1.35-.54.14-.06.27-.16.41-.23.43-.21.86-.42,1.29-.63.35-.17.69-.35,1.03-.51.28-.13.56-.24.84-.37.37-.16.75-.32,1.11-.48.91-.41,1.81-.84,2.73-1.23.51-.22,1.09-.3,1.58-.56,1.04-.56,2.33-.42,3.27-1.26.14-.13.45-.04.68-.1.66-.17,1.32-.35,1.98-.53.45-.12.89-.29,1.34-.35.59-.08,1.15-.14,1.74-.39.82-.34,1.76-.39,2.65-.52,1.05-.15,2.11-.3,3.17-.36,1.39-.09,2.78-.12,4.17-.13,1.01,0,2.03.03,3.03.11,1.32.1,2.64.2,3.93.42.91.15,1.79.51,2.68.77.08.02.17.05.25.04,1.25-.1,2.37.43,3.55.68.3.06.62-.02.93-.04.29-.02.6-.12.88-.06.91.2,1.79,0,2.67-.16.79-.14,1.59-.27,2.37-.45.31-.07.58-.3.88-.41,1.42-.54,2.76-1.12,3.97-2.13,1.4-1.16,1.33-2.53,1.18-4.04-.07-.69-.05-1.39-.03-2.09.04-1.3.12-2.59.14-3.89,0-.45-.14-.91-.13-1.36,0-.87.14-1.75.09-2.62-.02-.41-.28-.86-.56-1.17-.61-.69-1.27-1.36-1.99-1.93-.57-.45-1.28-.73-1.92-1.09-.39-.22-.76-.46-1.14-.68-.09-.05-.17-.14-.26-.16-1.88-.49-3.72-1.11-5.7-1.14-.37,0-.73-.23-1.1-.33-.43-.13-.86-.32-1.3-.34-.98-.06-1.87-.39-2.74-.8-.13-.06-.29-.09-.43-.1-.99-.06-1.89-.36-2.73-.87-.1-.06-.25-.04-.37-.08-.45-.13-.89-.37-1.34-.39-.69-.03-1.39.08-2.09.15-.11.01-.21.14-.33.16-1.39.18-2.78.39-4.18.49-1.47.11-2.94.12-4.38-.33-.39-.12-.84-.04-1.26-.11-.81-.13-1.69-.14-2.38-.51-.57-.3-1.11-.28-1.66-.42-.41-.1-.79-.33-1.19-.5-.26-.11-.53-.31-.78-.29-1.05.07-2.08-.17-2.96-.6-.88-.43-1.74-.19-2.59-.33-.81-.14-1.45.26-2.07.71-.08.06-.18.15-.27.14-.65-.01-1.1.33-1.5.78-.05.06-.15.1-.23.1-.79.02-1.36.56-2.04.83-.95.38-1.93.68-2.89,1.05-.36.14-.68.37-1.02.54-.21.11-.44.21-.67.29-.7.24-1.4.47-2.1.69-.34.11-.69.19-1.03.28-.68.17-1.36.34-2.04.51-.45.11-.91.29-1.36.3-3.48.04-6.97.05-10.45.05-.99,0-1.2-.22-1.31-1.19-.05-.41-.1-.83-.06-1.24.05-.44.38-.64.82-.62,1.28.05,2.57.21,3.85.15,1.53-.07,3.05-.33,4.57-.5.44-.05.88-.1,1.31-.17.94-.15,1.93-.17,2.79-.52.61-.25,1.2-.32,1.8-.46.39-.09.73-.36,1.1-.54.23-.11.48-.19.72-.29.4-.15.82-.28,1.21-.46.59-.26,1.17-.56,1.74-.84.37-.18.76-.33,1.09-.57.16-.12.22-.39.38-.72-.67-.06-1.2-.05-1.7-.16-.39-.08-.75-.3-1.13-.48-.72-.33-1.43-.71-2.17-1-.32-.13-.75-.25-1.05-.15-1.14.36-2.3.73-3.35,1.28-.52.28-1.01.28-1.53.4-.78.18-1.53.53-2.31.76-.71.21-1.5.24-2.15.56-1.22.6-2.49.4-3.75.52-.65.07-1.3.23-1.95.35-.52.09-.99-.01-1.11-.56-.2-.89-.31-1.8-.45-2.7-.07-.47.19-.68.6-.82,1.83-.61,3.72-.76,5.63-.89.76-.05,1.51-.33,2.26-.52.42-.1.84-.33,1.26-.32.82.03,1.3-.49,1.78-.97.34-.34-.05-.59-.29-.74-.37-.22-.78-.37-1.19-.54-.83-.34-1.73-.56-2.49-1.03-.5-.31-1.01-.23-1.49-.4-.58-.2-1.13-.45-1.7-.68-.14-.05-.26-.14-.4-.16-.87-.16-1.76-.28-2.62-.48-.52-.12-1.03-.34-1.51-.59-.16-.08-.29-.37-.3-.57-.02-.63.01-1.27.03-1.9.01-.4.2-.66.62-.6.69.1,1.37.26,2.06.37.5.08,1.01.06,1.49.17.7.16,1.38.4,2.07.62.21.07.42.23.62.22,1.03-.07,1.85.57,2.76.78.94.21,1.72.75,2.61.95.82.18,1.49.54,2.21.91.78.39,1.6.71,2.43,1.01.74.26,1.37-.11,2-.46.52-.29,1.08-.52,1.62-.77.97-.45,1.94-.91,2.92-1.34.38-.17.79-.29,1.19-.42.7-.22,1.42-.41,2.12-.63.54-.17,1.07-.36,1.61-.55.22-.08.43-.27.65-.28,1-.06,1.91-.34,2.76-.86.08-.05.21-.04.31-.06.9-.18,1.81-.31,2.68-.58.25-.08.41-.54.55-.86.04-.1-.11-.33-.22-.45-.69-.66-1.38-1.32-2.12-1.93-.46-.38-.98-.7-1.63-.38-.04.02-.08.02-.12.03-1.91.18-3.82.34-5.73.53-.32.03-.63.16-.94.25-.14.04-.27.13-.41.15-1.64.18-3.28.37-4.92.53-.56.05-1.23-.14-1.67.11-1.01.57-2.1.23-3.14.53-.9.26-1.96-.01-2.95-.07-.18,0-.35-.1-.53-.13-1.19-.23-2.39-.42-3.57-.69-.54-.13-1.05-.4-1.58-.61-.06-.02-.12-.05-.18-.06-1.2-.16-2.39-.36-3.59-.45-1.79-.14-1.85-1.17-1.44-2.49.14-.45.6-.8.82-1.06.55.12.92.23,1.31.27.44.06.89.1,1.33.08,1.59-.06,3.11.35,4.65.63.08.01.17.03.25.03,1.82.09,3.64.22,5.46.27,1.46.04,2.92.05,4.37-.07.85-.07,1.67-.45,2.51-.66.36-.09.75-.09,1.12-.16.73-.13,1.45-.28,2.18-.41.14-.03.3.04.43,0,.26-.07.71-.17.72-.28.02-.36,0-.84-.22-1.07-.62-.63-1.28-1.25-2.04-1.68-.71-.41-1.29-1.09-2.22-1.16-.44-.03-.85-.37-1.28-.54-.32-.13-.65-.26-.98-.3-1.78-.22-3.56-.42-5.34-.62-.93-.1-1.87-.25-2.8-.25-1.56,0-3.02-.41-4.5-.82-.1-.03-.2-.07-.3-.09-.97-.18-1.96-.3-2.91-.57-.43-.12-.78-.52-1.15-.8-.05-.04-.08-.17-.05-.23.25-.64.49-1.27.77-1.9.04-.1.23-.2.34-.2.59,0,1.25-.11,1.75.11,1.39.63,2.84.77,4.32.93.89.1,1.73.52,2.62.64.95.12,1.93.1,2.9.05.43-.02.76-.69.55-1.08-.61-1.14-.76-2.43-1.27-3.58-.29-.65-.26-1.29-.43-1.92-.19-.68-.5-1.33-.73-2-.08-.23-.12-.49-.13-.73,0-.64-.42-.85-.93-1.09-1-.47-1.98.1-2.98-.05-1.05-.17-2.12-.2-3.14-.29-.38-.79.27-1.23.44-1.8.27-.88.99-.94,1.79-.94.96,0,1.92-.09,2.87-.23.32-.05.73-.33.86-.61.09-.21-.2-.6-.34-.9-.1-.22-.32-.41-.33-.62-.03-.75-.58-1.27-.79-1.92-.25-.8-.84-1.59-.57-2.46.27-.86.71-1.7,1.42-2.3.21-.18.63-.21.81.26.16.41.43.76.61,1.16.42.93.81,1.87,1.21,2.8.16.37.32.75.47,1.12.28.7.59,1.39.81,2.11.26.82.68,1.14,1.54,1.21,1.8.15,3.6.34,5.39.53.13.01.26.11.39.18.59.32,1.31-.04,1.33-.71.02-.64-.03-1.25-.34-1.89-.33-.7-.42-1.53-.5-2.32-.11-.94-.02-1.91-.18-2.84-.18-1.06-.43-2.13-.85-3.1-.21-.49-.86-.79-1.34-1.16-.25-.19-.53-.37-.83-.48-.9-.33-1.87-.53-2.72-.97-.73-.38-1.75-.32-2.16-1.23-.12-.27-.18-.66-.07-.91.24-.56.52-1.13.93-1.56.29-.31.75-.48,1.28-.39.64.1,1.04.53,1.55.81.84.45,1.77.75,2.69,1.05.5.16.9-.17,1.11-.59.22-.45.4-.95.47-1.45.09-.6.36-1.06.72-1.53.31-.41.46-.94.65-1.43.19-.49.24-1.06.54-1.46.38-.52.57-1.09.74-1.68.11-.36.05-.67-.38-.93-.62-.37-1.15-.9-1.78-1.4.53-.69.87-1.45,1.46-1.82.63-.41.91-1.5,1.96-1.18.37.11.7.32,1.06.47.35.15.71.26,1.05.43.47.23.93.49,1.4.74.02,0,.03.04.05.04.8,0,1.33.6,2,.87,1.18.48,2.3,1.03,3.34,1.76.63.44,1.36.74,2.01,1.17.67.44,1.3.96,1.93,1.46.6.48,1.15.32,1.4-.39.11-.31.27-.62.46-.88.59-.79.47-1.71.3-2.54-.1-.5-.61-.92-.97-1.35-.51-.62-1.06-1.2-1.57-1.82-.89-1.08-1.79-2.15-2.63-3.26-.55-.73-.99-1.53-1.48-2.3-.08-.12-.18-.22-.28-.32-.36-.4-.31-1.04.13-1.39.49-.4.97-.8,1.47-1.19.12-.09.37-.2.45-.14.47.32.94.64,1.33,1.04.52.54.98,1.13,1.43,1.73.49.64.93,1.32,1.4,1.97.08.11.24.24.36.24.14,0,.33-.11.39-.23.09-.18.11-.41.1-.61-.02-.72,0-1.44-.1-2.15-.09-.65-.18-1.34-.48-1.91-.48-.9-.39-1.82-.36-2.75,0-.14.17-.31.31-.41.33-.23.66-.48,1.03-.64.65-.28,1.2-.85,1.99-.72.06.01.12.04.16.05.32.94.69,1.84.92,2.78.15.6.03,1.27.15,1.89.19.91.49,1.8.73,2.7.04.14.06.29.05.43-.01,1.13.02,2.26-.06,3.39-.05.68-.29,1.34-.42,2.02-.03.13,0,.29.05.42.52,1.09,1.42,1.72,2.5,2.16.28.11.52.33.81.42.61.2,1.24.32,1.84.51.52.16,1.03.41,1.55.56.42.13.85.24,1.29.25.89.02,1.6.51,2.41.75.36.11.74.19,1.1.18.5-.01,1.16.41,1.47-.06.26-.4.16-1.04.17-1.58.01-.84.05-1.7-.04-2.53-.1-.95-.17-1.96-.56-2.8-.42-.93-1.16-1.72-1.81-2.53-.92-1.14-1.95-2.21-2.83-3.38-.62-.83-1.08-1.78-1.59-2.68-.58-1.03-1.15-2.06-1.7-3.1-.33-.63-.61-1.28-.89-1.93-.21-.49,0-.92.5-1.13.32-.14.59-.4.92-.51.52-.18,1.07-.31,1.61-.42.51-.1.77.26.94.64.48,1.07.87,2.19,1.42,3.22.68,1.27,1.42,2.52,2.48,3.54.38.37.67.83.95,1.29.28.45.7.48,1.1.36.19-.06.28-.41.43-.63.1-.15.24-.27.32-.43.35-.72.71-1.43,1.02-2.17.41-.96.88-1.92,1.13-2.93.2-.84.31-1.8.1-2.61-.19-.7-.8-1.36-1.38-1.87-.44-.39-.46-.81-.3-1.16.15-.32.54-.62.9-.75.64-.22,1.33-.32,2-.43.17-.03.41-.02.54.08.44.33.77.29,1.14-.12.33-.36.77-.5,1.28-.54.65-.06,1.28-.29,1.93-.39.23-.04.69.06.7.16.06.33,0,.7-.08,1.04-.07.31-.24.6-.35.9-.19.48-.32.98-.58,1.43-.33.59-.4,1.04.05,1.64.57.76.94,1.67,1.48,2.46.47.69,1.11,1.26,1.58,1.95.29.43.62.77.98,1.12.43.41.74.93,1.14,1.38.3.34,1.76.25,2.1-.11.9-.96,1.64-2.07,2.49-3.06.6-.7,1.01-1.5,1.42-2.24.46-.83,1.41-1.55,1.19-2.69-.06-.31-.2-.65-.4-.89-.49-.55-1.02-1.07-1.58-1.56-.44-.39-.94-.73-1.41-1.09-.1-.08-.22-.15-.3-.26-.75-1.07-.54-1.63.85-1.54.97.07,1.94.09,2.92.14.06,0,.13-.02.17,0,.67.49,1.35.98,2.01,1.49.39.3,1.66.14,2.02-.21.24-.23.57-.36.86-.54.12-.07.27-.13.36-.23.53-.64,1.22-.72,1.99-.66.69.05,1.4-.01,2.09.05.27.03.66.2.75.41.1.23.02.68-.16.86-.55.54-1.19.99-1.79,1.49-.12.1-.21.23-.31.35-.09.11-.15.32-.25.34-.56.08-.79.53-1.11.89-.63.71-.65,1.59-.09,2.37.24.32.35.73.56,1.08.12.2.32.36.44.55.47.75.87,1.56,1.41,2.26.55.73,1.22,1.37,1.86,2.04.31.32.64.62.99.91.15.13.37.31.51.27.37-.1.77-.23,1.05-.47.59-.51,1.12-1.09,1.64-1.67.42-.48.78-1.01,1.16-1.52.51-.69,1.12-1.34,1.51-2.1.44-.87,1.39-1.56,1.14-2.7-.13-.6-.35-1.19-.58-1.77-.2-.52-.51-1.01-.69-1.54-.06-.18.08-.62.17-.64.4-.06.82-.04,1.23.01.26.04.5.26.76.27.74.03,1.38.14,1.98.69.3.28.99.15,1.51.18.85.05,1.71-.03,2.48.45.82.52.89.82.31,1.54-.49.6-1.02,1.17-1.52,1.76-.05.06-.15.13-.15.19.05.83.11,1.65.19,2.48.02.22.14.42.21.63.47,1.25.87,2.53,1.46,3.72.29.58.76,1.05.91,1.73.03.13.88.3,1.09.13.58-.46,1.03-1.08,1.51-1.66.34-.41.65-.84.94-1.28.45-.69.89-1.39,1.3-2.1.44-.77.86-1.54,1.25-2.34.12-.24.16-.54.15-.8-.03-.54.3-.66.71-.73.86-.14,1.62.08,2.29.64.11.09.23.17.35.24.22.12.61.21.63.35.05.37.01.8-.11,1.15-.2.57-.48,1.12-.77,1.66-.36.67-.76,1.33-1.15,1.99,0,.01-.05.02-.05.02,0,.85-.75,1.33-1.04,2.04-.1.24-.31.43-.44.66-.75,1.38-1.87,2.48-2.78,3.74-.21.29-.56.48-.79.76-.45.55-.87,1.14-1.3,1.71-.04.05-.06.11-.08.17-.74,2.25-.96,4.57-.95,6.93,0,.49.26.62.66.63,1.22.02,2.37-.24,3.47-.8.33-.17.78-.2,1.17-.16.84.08,1.53-.35,2.28-.57.35-.1.69-.31,1.04-.32.71,0,1.25-.33,1.79-.72.16-.12.39-.14.56-.24.29-.17.58-.36.84-.57.38-.31.74-.66,1.08-1.02.59-.61.34-1.23.34-1.83,0-.77-.2-1.54-.2-2.31,0-1.09.04-2.19.14-3.27.11-1.2.26-2.4.49-3.57.2-.97.55-1.91.83-2.86.1-.34.64-.47,1-.26.2.12.43.18.64.29.33.18.66.37.99.56.23.13.48.24.68.41.14.12.31.31.31.47,0,.8.03,1.61-.1,2.4-.11.61-.44,1.19-.67,1.78-.03.08-.06.16-.06.24-.05.88-.11,1.77-.11,2.65,0,.17.19.46.34.49.16.03.42-.12.55-.27.57-.68.97-1.48,1.68-2.08.58-.49.96-1.2,1.44-1.81.2-.25.41-.51.67-.69.15-.1.46-.14.6-.05.66.44,1.35.87,1.88,1.44.2.22.19.89,0,1.18-.74,1.15-1.58,2.24-2.4,3.33-.97,1.29-1.96,2.57-2.96,3.83-.39.49-.8.97-1.23,1.42-.48.5-.69,1.77-.39,2.38.29.59.55,1.2.8,1.81.16.39.78.6,1.18.33.51-.35.95-.79,1.47-1.13.79-.53,1.61-1.02,2.42-1.52.88-.54,1.77-1.07,2.67-1.57.47-.26.97-.44,1.46-.66,1.2-.52,2.4-1.03,3.6-1.56.26-.12.52-.26.75-.43.64-.45,1.43-.3,1.82.37.02.04.02.09.05.11.43.38.88.74,1.28,1.15.31.31.61.66.79,1.05.06.13-.25.48-.44.66-.48.46-1.01.86-1.49,1.33-.11.11-.18.43-.1.54.45.68.69,1.4.82,2.21.06.37.47.67.7,1.02.08.11.08.27.13.4.25.55.51,1.1.75,1.65.09.2.13.42.19.64.18.69.35,1.38.92,1.9.41.38.81.25,1.22.12.19-.06.39-.15.54-.28.7-.61,1.86-.35,2.39-1.26.67,0,1.5-.24,1.96.07.55.37.85,1.18,1.12,1.86.22.55-.47,1.47-1.12,1.55-.8.1-1.48.39-2.16.83-.45.29-1.09.26-1.58.51-.79.4-1.61.77-2.21,1.47-.05.06-.1.13-.13.21-.31.81-.61,1.62-.68,2.49-.12,1.46-.17,2.93-.37,4.38-.09.65-.45,1.26-.7,1.88-.32.8-.18,1.72.36,2.09.12.08.31.14.45.11.57-.1,1.13-.26,1.7-.36.76-.13,1.54-.22,2.3-.33.2-.03.4-.05.63.04-.09.05-.19.1-.16.09.76-.1,1.65-.2,2.53-.36.22-.04.46-.29.59-.5.2-.33.32-.71.46-1.08.2-.56.35-1.13.56-1.68.24-.62.54-1.22.82-1.83.48-1.08.96-2.16,1.43-3.24.17-.39.9-.41,1.22.04.24.34.35.76.55,1.13.13.24.41.45.42.69.03.58.05,1.19-.11,1.74-.17.62-.55,1.17-.81,1.77-.28.65-.54,1.3-.78,1.96-.29.8.2,1.41,1.2,1.47.91.05,1.81.07,2.72.06.7,0,1.09.21,1.4,1.05.11.31.29.61.39.93.14.42.08.74-.46.81-.4.05-.78.17-1.2.17.08-.03.17-.06.42-.16-1.58,0-2.99-.02-4.4,0-.7.02-1.52.81-1.52,1.51,0,.82-.48,1.46-.69,2.19-.17.58-.18,1.2-.31,1.8-.12.54-.31,1.06-.48,1.58-.11.35-.21.7-.34,1.05-.08.22-.27.43-.3.65-.07.53-.17,1.09-.07,1.6.03.18.6.35.93.37,1.59.08,3.12-.27,4.63-.7.3-.08.62-.16.93-.15,1.2,0,2.3-.37,3.42-.78.61-.22,1.33-.15,2-.15.14,0,.34.23.41.4.24.56.45,1.13.62,1.72.03.11-.15.36-.3.43-.42.23-.86.48-1.32.6-1.71.46-3.43.94-5.17,1.28-1.03.2-2.11.09-3.16.17-1.52.11-3.03.25-4.54.41-.97.11-1.94.26-2.9.45-.36.07-.72.21-1.02.41-.75.5-1.73.46-2.4,1.19-.44.48-1.12.72-1.66,1.11-.47.34-.92.71-1.3,1.15-.17.2-.29.7-.17.85.19.23.6.29.92.39.22.07.46.1.69.15.14.03.29.07.43.09,1.19.17,2.44.18,3.57.54,2.2.71,4.43.36,6.64.41,1.55.03,3.12-.1,4.66-.25.83-.08,1.63-.39,2.45-.53.56-.09,1.14-.07,1.71-.09.7-.03,1.39-.05,2.09-.08.19,0,.38-.03.56-.07.25-.05.56-.26.72-.17.51.27,1.04.57.93,1.32-.04.29.03.59.03.88.01.73-.35,1.14-1.09,1.23-1.34.17-2.69.31-4.02.51-.47.07-.9.35-1.37.46-.84.21-1.7.34-2.55.54-.61.14-1.19.36-1.8.51-.38.09-.78.19-1.16.17-1.3-.09-2.6-.23-3.89-.36-1.88-.2-3.75-.4-5.63-.62-.78-.09-1.59-.1-2.32-.35-1.36-.46-2.75-.29-4.12-.46-1.15-.14-2.28-.48-3.43-.55-.48-.03-1.05.36-1.46.69-.59.48-1.07,1.08-1.59,1.63-.61.64-.53,1.1.32,1.37.78.25,1.59.35,2.38.57.61.17,1.2.43,1.8.64.23.08.47.15.7.21.71.19,1.52.23,2.11.61.42.26.8.19,1.18.32.47.15.92.36,1.38.54.28.11.56.22.84.32.48.17.99.29,1.44.52.82.42,1.72.59,2.52,1.13.61.41,1.39.73,2.12,1.02.59.24,1.27.24,1.89-.26.42-.33,1.04-.39,1.57-.6.36-.14.7-.34,1.05-.5.33-.15.67-.29,1.01-.42.53-.2,1.06-.39,1.58-.59.24-.09.48-.21.73-.29.64-.21,1.29-.41,1.94-.62.27-.09.54-.26.8-.25.94.01,1.73-.42,2.56-.76.45-.18,1-.08,1.49-.19.9-.19,1.79-.45,2.8-.7.16.18.56.43.59.72.09.79.03,1.59,0,2.39,0,.08-.14.2-.24.24-1.27.44-2.5,1.01-3.9,1.02-.56,0-1.11.34-1.67.54-.29.1-.56.3-.86.32-.79.06-1.46.36-2.1.8-.11.08-.28.13-.42.12-.66-.02-1.11.41-1.6.74-.15.1-.35.1-.51.19-.25.15-.71.37-.68.5.04.3.27.71.53.8,1.12.4,2.26.8,3.42,1.03,1.21.24,2.48.24,3.7.44,1.2.2,2.37.52,3.55.84.16.04.34.36.35.55.03.71.07,1.44-.06,2.13-.08.44-.4.88-.7,1.23-.13.14-.54.14-.78.06-1.34-.42-2.73-.31-4.1-.43-.63-.06-1.32-.21-1.81-.56-.23-.16-.43-.23-.63-.23-1-.02-1.85-.52-2.76-.82-.16-.05-.33-.12-.49-.11-1.01.05-1.87-.35-2.74-.81-.54-.29-1.18-.39-1.77-.59-.26-.09-.52-.34-.76-.32-.47.04-.95.17-1.39.34-.62.24-1.24.5-1.8.85-.63.39-1.3.48-2,.51-.16,0-.44.27-.42.39.02.19.22.39.39.52.18.15.41.24.62.35.38.19.78.35,1.15.55.38.2.73.45,1.1.66.12.07.26.17.38.16.77-.06,1.29.47,1.92.75.09.04.18.12.28.13,1.83.15,3.52.94,5.39,1.11,1.22.11,2.48.3,3.72.48.5.07,1.03.02,1.54.01.63,0,1.25-.01,1.88-.03.52-.01,1.05.02,1.56-.06.57-.09.94.19,1.27.54.11.12.06.43.02.64-.06.28-.21.55-.26.83-.15.83-.34,1.03-1.18,1.04-2.3.04-4.6.06-6.9.07-1.41,0-2.83-.01-4.24-.1-.5-.03-.98-.31-1.47-.48-.33-.11-.66-.21-.99-.31-.68-.19-1.36-.36-2.03-.56-.48-.14-.97-.28-1.44-.45-.29-.1-.55-.28-.84-.4-.78-.31-1.56-.6-2.34-.91-.73-.29-1.46-.58-2.16-.92-.67-.32-1.3-.72-1.97-1.04-.77-.37-1.7-.44-2.31-1.14-1.2.05-2.4-.23-3.58.31-.68.31-1.48.49-2.22.5-.87.01-1.55.48-2.32.68-.26.07-.51.16-.76.24-.85.26-1.7.52-2.55.77-.18.05-.37.07-.55.1-.88.14-1.75.35-2.63.4-1.24.07-2.49.07-3.73.01-.86-.04-1.71-.25-2.56-.36-.73-.1-1.46-.02-2.2-.37-.63-.3-1.44-.36-2.08.22-.07.06-.2.05-.3.08-.78.19-1.68.2-2.29.63-.5.35-.95.2-1.4.36-.5.18-1.01.33-1.53.46-1.45.39-2.91.77-4.36,1.15-.3.08-.62.15-.93.15-1.26,0-2.4.48-3.59.74-1.05.22-1.79.91-2.76,1.24-.76.26-1.38.95-2.04,1.48-.45.36-.91.73-1.29,1.16-.26.29-.52.7-.54,1.06-.08,1.75-.08,3.5-.09,5.25-.01,2.2.04,4.39-.02,6.59-.03,1.05.28,1.85,1.16,2.44.77.52,1.46,1.15,2.26,1.63.48.29,1.16.26,1.62.57.83.54,1.74.4,2.63.53.48.07.95.27,1.42.4,1.77.51,3.56.25,5.28-.16.67-.16,1.35-.2,2.01-.34.85-.19,1.68-.5,2.52-.74.18-.05.37-.07.56-.08,1.01-.06,2.06.05,3.03-.19,2.19-.54,4.39-.31,6.59-.29,1.33.01,2.67.38,4,.4,1.4.02,2.68.44,3.99.83.28.08.58.12.87.11.75-.04,1.33.37,1.98.62.28.11.59.24.88.24.85,0,1.57.31,2.25.78.13.09.32.12.48.11.84-.04,1.51.4,2.2.77.13.07.27.09.41.15.63.26,1.26.53,1.88.79.65.28,1.31.55,1.96.84.74.34,1.47.7,2.22,1.04.38.17.83.24,1.17.46.77.51,1.85.46,2.44,1.3,1.06-.13,1.64.88,2.61,1.1.67.15,1.5.49,1.87,1.28.04.1.08.25.04.32-.7,1.16-1.44,2.28-2.48,3.17-.15.13-.5.15-.72.08-1.1-.35-2-1.09-3.1-1.49-1.39-.5-2.64-1.35-4.01-1.92-.89-.37-1.8-.81-2.84-.68-.55.07-.96.67-.77,1.2.08.22.11.45.15.68.18,1,.33,2,.54,2.99.1.45.33.88.47,1.32.17.57.3,1.14.45,1.71.16.59.33,1.17.48,1.76.13.52.27,1.04.37,1.57.09.52-.1,1.09.41,1.54.11.1-.06.58-.17.87-.25.68-.91.95-1.41,1.38-.59.51-1.25.5-1.9.14-1.05-.58-2.15-1.07-3.22-1.61-.2-.1-.35-.29-.56-.38-.44-.19-.9-.33-1.34-.52-.19-.09-.34-.28-.53-.39-.9-.49-1.83-.94-2.71-1.47-.72-.43-1.39-.93-2.05-1.45-.4-.31-.65-.29-.98.12-.57.72-.91,1.47-1,2.41-.12,1.21.35,2.12,1.09,2.99.73.86,1.44,1.74,2.1,2.65.53.73.97,1.53,1.46,2.29.12.19.28.37.45.51.96.73.35,1.87-.48,2.26-.21.1-.4.21-.6.32-.31.17-.7.56-.91.48-.43-.16-.83-.53-1.13-.9-.57-.71-1.04-1.5-1.61-2.22-.2-.25-.58-.37-.94-.59h0Z"/>
  <g>
    <path class="cls-1" d="m199.69,180.03c-.32.49-.75.56-1.29.2-.2-.13-.2-.47.02-1,.45-.42.88-.5,1.26-.24.22.15.22.49,0,1.04Z"/>
    <path class="cls-1" d="m208.96,165.99c-.35.46-.68.58-.98.38-.12-.08-.19-.26-.21-.55-.02-.28.02-.5.13-.66.11-.17.29-.28.54-.34s.45-.04.6.07c.2.13.17.5-.08,1.1Z"/>
    <path class="cls-1" d="m209.01,175.73c-.14.21-1.03.11-2.66-.3-.58-.14-1.05-.34-1.41-.58l-.55-.37c-.28-.18-.48-.5-.6-.95-.12-.45-.1-.81.08-1.08.24-.37.62-.54,1.13-.54.51,0,1.08.22,1.72.63.29.29.49.47.62.55.23.16.66.72,1.27,1.71.33.54.47.85.42.93Z"/>
    <path class="cls-1" d="m209.65,168.56c-.1.13-.24.19-.41.21-.18.01-.34-.03-.48-.13-.32-.21-.39-.46-.21-.74.07-.11.24-.2.5-.26.26-.06.42-.07.5-.01.12.08.16.39.1.93Z"/>
    <path class="cls-1" d="m202.32,179.47c-.07.1-.23.2-.51.29-.27.09-.44.12-.5.07-.19-.13-.17-.46.04-1,.24-.31.45-.39.65-.26.13.09.23.24.3.45.07.21.07.36.01.45Z"/>
    <path class="cls-1" d="m208.99,177.4c-.14.21-.96.56-2.46,1.06-1.5.49-2.33.68-2.51.56s-.23-.4-.17-.83c.19-.16.71-.34,1.57-.52,1.01-.22,2.22-.39,3.62-.5,0,.09-.01.16-.06.23Z"/>
    <path class="cls-1" d="m210.34,174.74c-.49-1.05-.84-2.05-1.05-3.01-.17-.75-.22-1.19-.13-1.31.06-.09.16-.15.3-.18.14-.03.26-.02.36.05.16.1.29.53.42,1.29.15.91.18,1.97.1,3.17Z"/>
    <path class="cls-1" d="m208.66,182.68c-.33.49-.75.83-1.28,1.04-.53.2-.96.19-1.29-.03-.3-.2-.44-.56-.43-1.08s.19-1.02.51-1.51c.26-.39.85-.92,1.77-1.58.96-.7,1.64-1.06,2.02-1.06-.2,1.79-.64,3.2-1.32,4.22Z"/>
    <path class="cls-1" d="m214.93,173.47c-.24.36-.96.95-2.17,1.78-.59.41-.96.56-1.1.47-.21-.14-.19-.62.06-1.43.42-1.37.79-2.31,1.12-2.81.29-.43.68-.75,1.16-.96.49-.2.88-.21,1.18,0,.36.24.51.62.48,1.15-.04.53-.28,1.13-.73,1.81Z"/>
    <path class="cls-1" d="m217.43,175.93c-.21.31-1.68.53-4.41.67.13-.2.59-.44,1.38-.73.79-.28,1.49-.48,2.09-.59.5-.08.8-.09.9-.02.22.15.23.37.03.67Z"/>
    <path class="cls-1" d="m217.2,181.3c-.24.37-.6.56-1.06.57-.46.01-.97-.17-1.53-.54-.83-.55-1.67-1.65-2.52-3.29l.13-.2c.1-.1.48-.07,1.14.09,1.37.32,2.39.7,3.04,1.13.44.3.74.66.89,1.1.15.44.12.82-.1,1.14Z"/>
    <path class="cls-1" d="m212.28,183.38c-.1.14-.29.19-.58.14-.32-.85-.52-1.68-.62-2.5-.09-.64-.1-1-.04-1.1l.17-.25.2.13c.21.14.43.76.66,1.86.22,1.02.28,1.6.2,1.72Z"/>
    <path class="cls-1" d="m220.5,175.61c-.15.22-.35.38-.6.49s-.46.1-.63-.01c-.41-.27-.45-.65-.13-1.14.14-.21.33-.34.55-.4.23-.06.43-.03.59.08.12.08.2.24.24.49.04.24.03.41-.03.5Z"/>
    <path class="cls-1" d="m213.3,186.03c-.3.44-.6.56-.91.36-.4-.27-.47-.59-.21-.98.08-.12.24-.2.47-.23s.41,0,.54.08c.29.19.33.45.11.77Z"/>
    <path class="cls-1" d="m213.71,188.75c-.3.45-.64.56-1,.32s-.41-.62-.09-1.09c.08-.12.23-.21.45-.26.22-.05.39-.03.52.06.36.24.4.56.12.97Z"/>
    <path class="cls-1" d="m223.04,175.12c-.27.41-.65.45-1.14.13-.26-.17-.29-.39-.11-.67.31-.47.64-.58,1-.35.14.1.24.24.29.42.05.19.04.34-.04.46Z"/>
  </g>
  <g>
    <path class="cls-1" d="m37.16,189.77c.34.48.25.9-.27,1.27-.2.14-.51.02-.93-.37-.23-.57-.15-1,.23-1.27.22-.15.54-.03.97.37Z"/>
    <path class="cls-1" d="m27.38,176.09c.3.49.3.84,0,1.05-.12.09-.32.09-.59,0-.27-.08-.46-.2-.57-.35-.12-.16-.16-.37-.12-.62s.13-.43.28-.54c.2-.14.53.02,1,.47Z"/>
    <path class="cls-1" d="m36.49,179.53c.15.21-.27,1-1.23,2.37-.34.49-.69.86-1.05,1.11l-.54.38c-.27.19-.64.27-1.11.22-.47-.05-.79-.2-.98-.46-.25-.36-.29-.77-.1-1.24.19-.47.59-.93,1.2-1.38.37-.17.62-.29.74-.38.23-.16.91-.35,2.05-.57.62-.11.96-.13,1.01-.06Z"/>
    <path class="cls-1" d="m30.03,176.37c.08.14.1.29.04.46-.05.17-.15.3-.29.4-.32.22-.57.2-.76-.07-.08-.11-.1-.29-.06-.56.03-.26.09-.42.17-.47.12-.08.42,0,.91.24Z"/>
    <path class="cls-1" d="m37.58,187.12c.07.1.1.29.09.57,0,.28-.05.45-.11.5-.18.13-.49,0-.92-.4-.2-.33-.21-.57,0-.7.13-.09.31-.13.53-.12.22.01.36.06.43.15Z"/>
    <path class="cls-1" d="m38.03,180.15c.15.21.18,1.1.11,2.67-.08,1.57-.2,2.42-.37,2.55s-.45.08-.84-.14c-.08-.23-.06-.78.08-1.65.15-1.03.43-2.21.83-3.56.08.02.15.07.19.13Z"/>
    <path class="cls-1" d="m36.04,177.94c-1.15.08-2.21.05-3.18-.1-.76-.11-1.19-.23-1.28-.35-.06-.09-.08-.2-.06-.35.02-.14.08-.25.18-.32.15-.11.6-.08,1.35.07.9.19,1.9.54,2.99,1.04Z"/>
    <path class="cls-1" d="m42.85,182.35c.34.48.51,1,.51,1.56,0,.56-.16.96-.49,1.19-.29.21-.68.21-1.16.01s-.89-.54-1.22-1.02c-.27-.38-.55-1.12-.84-2.22-.31-1.15-.4-1.91-.26-2.27,1.6.83,2.76,1.74,3.47,2.74Z"/>
    <path class="cls-1" d="m36.5,173.2c.25.35.54,1.23.88,2.66.17.7.18,1.1.04,1.2-.21.15-.64-.04-1.31-.57-1.13-.88-1.87-1.57-2.22-2.06-.3-.42-.46-.9-.48-1.43-.01-.53.12-.9.42-1.11.35-.25.76-.26,1.24-.03.48.22.95.67,1.42,1.33Z"/>
    <path class="cls-1" d="m39.69,171.74c.22.3-.1,1.76-.96,4.36-.14-.2-.2-.71-.18-1.55.02-.84.08-1.56.2-2.16.1-.5.2-.78.3-.85.22-.15.43-.08.64.21Z"/>
    <path class="cls-1" d="m44.62,173.89c.25.36.3.76.15,1.19-.16.44-.51.85-1.05,1.23-.82.58-2.14.97-3.97,1.18l-.14-.2c-.06-.12.11-.47.49-1.04.79-1.17,1.51-1.98,2.15-2.43.43-.31.88-.45,1.34-.44.46.02.8.18,1.03.5Z"/>
    <path class="cls-1" d="m44.8,179.22c.1.14.08.34-.07.59-.91-.01-1.76-.12-2.56-.32-.63-.14-.97-.27-1.04-.36l-.17-.24.2-.14c.21-.15.86-.13,1.97.05,1.03.17,1.59.31,1.68.43Z"/>
    <path class="cls-1" d="m40.5,168.77c.15.22.23.46.24.74s-.07.47-.24.58c-.4.29-.77.19-1.11-.29-.15-.21-.2-.43-.18-.66.03-.23.13-.41.29-.52.12-.08.3-.1.54-.05.24.05.39.12.45.21Z"/>
    <path class="cls-1" d="m47.64,179.22c.31.43.31.76,0,.98-.39.28-.72.23-.99-.15-.09-.12-.1-.29-.04-.52s.15-.39.27-.47c.28-.2.54-.14.76.17Z"/>
    <path class="cls-1" d="m50.33,179.82c.32.45.29.8-.06,1.05s-.72.16-1.05-.31c-.09-.12-.11-.29-.08-.51.03-.22.11-.38.24-.47.35-.25.67-.17.95.23Z"/>
    <path class="cls-1" d="m40.95,166.22c.29.4.19.77-.29,1.11-.25.18-.47.13-.66-.14-.32-.46-.31-.81.04-1.06.14-.1.31-.14.5-.12.19.02.33.09.42.21Z"/>
  </g>
</svg>